<svg xmlns="http://www.w3.org/2000/svg" viewBox="0 0 256 256" role="img" aria-label="DevEnv Manager">
  <defs>
    <linearGradient id="bg" x1="34" y1="24" x2="226" y2="232" gradientUnits="userSpaceOnUse">
      <stop stop-color="#1769E8"/>
      <stop offset="1" stop-color="#11A7D7"/>
    </linearGradient>
    <linearGradient id="panel" x1="62" y1="56" x2="198" y2="218" gradientUnits="userSpaceOnUse">
      <stop stop-color="#FFFFFF" stop-opacity="0.30"/>
      <stop offset="1" stop-color="#FFFFFF" stop-opacity="0.14"/>
    </linearGradient>
  </defs>
  <rect width="256" height="256" rx="56" fill="url(#bg)"/>
  <path d="M64 77c0-18.2 14.8-33 33-33h74c18.2 0 33 14.8 33 33v74c0 18.2-14.8 33-33 33H97c-18.2 0-33-14.8-33-33V77Z" fill="url(#panel)"/>
  <path d="M43 111c0-22.6 18.4-41 41-41h80c22.6 0 41 18.4 41 41v60c0 22.6-18.4 41-41 41H84c-22.6 0-41-18.4-41-41v-60Z" fill="#FFFFFF" fill-opacity="0.22"/>
  <path d="M92 122l26 22-26 22" fill="none" stroke="#FFFFFF" stroke-width="16" stroke-linecap="round" stroke-linejoin="round"/>
  <path d="M135 168h40" fill="none" stroke="#FFFFFF" stroke-width="16" stroke-linecap="round"/>
  <path d="M117 61V37h42v24" fill="none" stroke="#FFFFFF" stroke-opacity="0.76" stroke-width="12" stroke-linecap="round" stroke-linejoin="round"/>
  <path d="M50 124H26v42h24" fill="none" stroke="#FFFFFF" stroke-opacity="0.72" stroke-width="12" stroke-linecap="round" stroke-linejoin="round"/>
  <circle cx="159" cy="37" r="13" fill="#FFFFFF"/>
  <circle cx="26" cy="166" r="13" fill="#FFFFFF"/>
  <circle cx="205" cy="92" r="13" fill="#FFFFFF"/>
</svg>
